<svg width="43" height="24" viewBox="0 0 43 24" fill="none" xmlns="http://www.w3.org/2000/svg">
<path d="M3.44531 4.37988H4.2998C4.27246 4.70573 4.18132 4.99626 4.02637 5.25146C3.87142 5.50439 3.65381 5.70378 3.37354 5.84961C3.09326 5.99544 2.7526 6.06836 2.35156 6.06836C2.04395 6.06836 1.76709 6.01367 1.521 5.9043C1.2749 5.79264 1.06413 5.63542 0.888672 5.43262C0.713216 5.22754 0.578776 4.98031 0.485352 4.69092C0.394206 4.40153 0.348633 4.07796 0.348633 3.72021V3.30664C0.348633 2.94889 0.395345 2.62533 0.48877 2.33594C0.584473 2.04655 0.721191 1.79932 0.898926 1.59424C1.07666 1.38688 1.28971 1.22852 1.53809 1.11914C1.78874 1.00977 2.07015 0.955078 2.38232 0.955078C2.77881 0.955078 3.11377 1.02799 3.38721 1.17383C3.66064 1.31966 3.87256 1.52132 4.02295 1.77881C4.17562 2.0363 4.26904 2.33138 4.30322 2.66406H3.44873C3.42594 2.44987 3.37581 2.26644 3.29834 2.11377C3.22314 1.9611 3.11149 1.84489 2.96338 1.76514C2.81527 1.68311 2.62158 1.64209 2.38232 1.64209C2.18636 1.64209 2.01546 1.67855 1.86963 1.75146C1.7238 1.82438 1.60189 1.93148 1.50391 2.07275C1.40592 2.21403 1.33187 2.38835 1.28174 2.5957C1.23389 2.80078 1.20996 3.03548 1.20996 3.2998V3.72021C1.20996 3.97087 1.23161 4.19873 1.2749 4.40381C1.32048 4.60661 1.38883 4.78092 1.47998 4.92676C1.5734 5.07259 1.69189 5.18538 1.83545 5.26514C1.979 5.34489 2.15104 5.38477 2.35156 5.38477C2.59538 5.38477 2.79248 5.34603 2.94287 5.26855C3.09554 5.19108 3.21061 5.07829 3.28809 4.93018C3.36784 4.77979 3.42025 4.59635 3.44531 4.37988ZM5.0791 1.02344H6.83936C7.21761 1.02344 7.54004 1.0804 7.80664 1.19434C8.07324 1.30827 8.27718 1.47689 8.41846 1.7002C8.56201 1.92122 8.63379 2.19466 8.63379 2.52051C8.63379 2.76888 8.58822 2.98763 8.49707 3.17676C8.40592 3.36589 8.27718 3.52539 8.11084 3.65527C7.9445 3.78288 7.74626 3.882 7.51611 3.95264L7.25635 4.0791H5.67383L5.66699 3.39893H6.85303C7.05811 3.39893 7.229 3.36247 7.36572 3.28955C7.50244 3.21663 7.60498 3.11751 7.67334 2.99219C7.74398 2.86458 7.7793 2.72103 7.7793 2.56152C7.7793 2.38835 7.74512 2.23796 7.67676 2.11035C7.61068 1.98047 7.50814 1.88135 7.36914 1.81299C7.23014 1.74235 7.05355 1.70703 6.83936 1.70703H5.93701V6H5.0791V1.02344ZM7.91943 6L6.75049 3.76465L7.64941 3.76123L8.83545 5.95557V6H7.91943ZM12.7456 5.31982V6H10.1035V5.31982H12.7456ZM10.3462 1.02344V6H9.48828V1.02344H10.3462ZM12.4004 3.10156V3.77148H10.1035V3.10156H12.4004ZM12.7285 1.02344V1.70703H10.1035V1.02344H12.7285ZM15.3843 1.68652L13.8975 6H12.9985L14.8716 1.02344H15.4458L15.3843 1.68652ZM16.6284 6L15.1382 1.68652L15.0732 1.02344H15.6509L17.5308 6H16.6284ZM16.5566 4.1543V4.83447H13.8496V4.1543H16.5566ZM19.7046 1.02344V6H18.8535V1.02344H19.7046ZM21.2666 1.02344V1.70703H17.3052V1.02344H21.2666ZM22.8389 1.02344V6H21.981V1.02344H22.8389ZM25.6108 5.09082L26.9199 1.02344H27.8667L26.0825 6H25.4434L25.6108 5.09082ZM24.4009 1.02344L25.6997 5.09082L25.8774 6H25.2349L23.4575 1.02344H24.4009ZM31.6812 5.31982V6H29.0391V5.31982H31.6812ZM29.2817 1.02344V6H28.4238V1.02344H29.2817ZM31.3359 3.10156V3.77148H29.0391V3.10156H31.3359ZM31.6641 1.02344V1.70703H29.0391V1.02344H31.6641ZM1.95166 15H0.888672L0.895508 14.3198H1.95166C2.25928 14.3198 2.51676 14.2526 2.72412 14.1182C2.93376 13.9837 3.09098 13.7912 3.1958 13.5405C3.3029 13.2899 3.35645 12.9914 3.35645 12.645V12.375C3.35645 12.1061 3.32568 11.868 3.26416 11.6606C3.20492 11.4533 3.11605 11.279 2.99756 11.1377C2.88135 10.9964 2.73779 10.8893 2.56689 10.8164C2.39827 10.7435 2.20345 10.707 1.98242 10.707H0.868164V10.0234H1.98242C2.31283 10.0234 2.61475 10.0793 2.88818 10.1909C3.16162 10.3003 3.39746 10.4587 3.5957 10.666C3.79622 10.8734 3.95003 11.1217 4.05713 11.4111C4.16423 11.7005 4.21777 12.0241 4.21777 12.3818V12.645C4.21777 13.0028 4.16423 13.3263 4.05713 13.6157C3.95003 13.9051 3.79622 14.1535 3.5957 14.3608C3.39518 14.5659 3.15592 14.7243 2.87793 14.8359C2.60221 14.9453 2.29346 15 1.95166 15ZM1.36377 10.0234V15H0.505859V10.0234H1.36377ZM5.99512 10.0234V15H5.13721V10.0234H5.99512ZM10.8828 12.457V14.3574C10.8122 14.4508 10.7017 14.5534 10.5513 14.665C10.4032 14.7744 10.2061 14.869 9.95996 14.9487C9.71387 15.0285 9.40739 15.0684 9.04053 15.0684C8.72835 15.0684 8.44238 15.016 8.18262 14.9111C7.92285 14.804 7.6984 14.6479 7.50928 14.4429C7.32243 14.2378 7.17773 13.9883 7.0752 13.6943C6.97266 13.3981 6.92139 13.0609 6.92139 12.6826V12.3374C6.92139 11.9614 6.9681 11.6265 7.06152 11.3325C7.15723 11.0363 7.29395 10.7856 7.47168 10.5806C7.64941 10.3755 7.86361 10.2205 8.11426 10.1157C8.36719 10.0086 8.65316 9.95508 8.97217 9.95508C9.38005 9.95508 9.71729 10.0234 9.98389 10.1602C10.2528 10.2946 10.4601 10.4814 10.606 10.7207C10.7518 10.96 10.8441 11.2334 10.8828 11.541H10.042C10.0146 11.3678 9.9611 11.2129 9.88135 11.0762C9.80387 10.9395 9.69222 10.8324 9.54639 10.7549C9.40283 10.6751 9.21598 10.6353 8.98584 10.6353C8.7876 10.6353 8.61328 10.6729 8.46289 10.748C8.3125 10.8232 8.18717 10.9338 8.08691 11.0796C7.98893 11.2254 7.91488 11.4032 7.86475 11.6128C7.81462 11.8224 7.78955 12.0617 7.78955 12.3306V12.6826C7.78955 12.9561 7.81803 13.1987 7.875 13.4106C7.93424 13.6226 8.01855 13.8014 8.12793 13.9473C8.23958 14.0931 8.37516 14.2036 8.53467 14.2788C8.69417 14.3517 8.87419 14.3882 9.07471 14.3882C9.27067 14.3882 9.43132 14.3722 9.55664 14.3403C9.68197 14.3062 9.78109 14.2663 9.854 14.2207C9.9292 14.1729 9.9873 14.1273 10.0283 14.084V13.0962H8.99268V12.457H10.8828ZM12.749 10.0234V15H11.8911V10.0234H12.749ZM15.7603 10.0234V15H14.9092V10.0234H15.7603ZM17.3223 10.0234V10.707H13.3608V10.0234H17.3223ZM19.5884 10.6865L18.1016 15H17.2026L19.0757 10.0234H19.6499L19.5884 10.6865ZM20.8325 15L19.3423 10.6865L19.2773 10.0234H19.855L21.7349 15H20.8325ZM20.7607 13.1543V13.8345H18.0537V13.1543H20.7607ZM25.4092 14.3198V15H22.9106V14.3198H25.4092ZM23.1499 10.0234V15H22.292V10.0234H23.1499ZM2.396 21.144H1.10059V20.4639H2.396C2.62158 20.4639 2.80387 20.4274 2.94287 20.3545C3.08187 20.2816 3.18327 20.1813 3.24707 20.0537C3.31315 19.9238 3.34619 19.7757 3.34619 19.6094C3.34619 19.4521 3.31315 19.3052 3.24707 19.1685C3.18327 19.0295 3.08187 18.9178 2.94287 18.8335C2.80387 18.7492 2.62158 18.707 2.396 18.707H1.36377V23H0.505859V18.0234H2.396C2.78109 18.0234 3.10807 18.0918 3.37695 18.2285C3.64811 18.363 3.85433 18.5498 3.99561 18.7891C4.13688 19.026 4.20752 19.2972 4.20752 19.6025C4.20752 19.9238 4.13688 20.1995 3.99561 20.4297C3.85433 20.6598 3.64811 20.8364 3.37695 20.9595C3.10807 21.0825 2.78109 21.144 2.396 21.144ZM4.97656 18.0234H6.73682C7.11507 18.0234 7.4375 18.0804 7.7041 18.1943C7.9707 18.3083 8.17464 18.4769 8.31592 18.7002C8.45947 18.9212 8.53125 19.1947 8.53125 19.5205C8.53125 19.7689 8.48568 19.9876 8.39453 20.1768C8.30339 20.3659 8.17464 20.5254 8.0083 20.6553C7.84196 20.7829 7.64372 20.882 7.41357 20.9526L7.15381 21.0791H5.57129L5.56445 20.3989H6.75049C6.95557 20.3989 7.12646 20.3625 7.26318 20.2896C7.3999 20.2166 7.50244 20.1175 7.5708 19.9922C7.64144 19.8646 7.67676 19.721 7.67676 19.5615C7.67676 19.3883 7.64258 19.238 7.57422 19.1104C7.50814 18.9805 7.4056 18.8813 7.2666 18.813C7.1276 18.7424 6.95101 18.707 6.73682 18.707H5.83447V23H4.97656V18.0234ZM7.81689 23L6.64795 20.7646L7.54688 20.7612L8.73291 22.9556V23H7.81689ZM13.354 20.375V20.6484C13.354 21.0244 13.305 21.3617 13.207 21.6602C13.109 21.9587 12.9689 22.2127 12.7866 22.4224C12.6066 22.632 12.3901 22.7926 12.1372 22.9043C11.8843 23.0137 11.604 23.0684 11.2964 23.0684C10.991 23.0684 10.7119 23.0137 10.459 22.9043C10.2083 22.7926 9.99072 22.632 9.80615 22.4224C9.62158 22.2127 9.47803 21.9587 9.37549 21.6602C9.27523 21.3617 9.2251 21.0244 9.2251 20.6484V20.375C9.2251 19.999 9.27523 19.6629 9.37549 19.3667C9.47575 19.0682 9.61702 18.8141 9.79932 18.6045C9.98389 18.3926 10.2015 18.2319 10.4521 18.1226C10.7051 18.0109 10.9842 17.9551 11.2896 17.9551C11.5972 17.9551 11.8774 18.0109 12.1304 18.1226C12.3833 18.2319 12.6009 18.3926 12.7832 18.6045C12.9655 18.8141 13.1056 19.0682 13.2036 19.3667C13.3039 19.6629 13.354 19.999 13.354 20.375ZM12.4961 20.6484V20.3682C12.4961 20.0902 12.4688 19.8452 12.4141 19.6333C12.3617 19.4191 12.283 19.2402 12.1782 19.0967C12.0757 18.9508 11.9492 18.8415 11.7988 18.7686C11.6484 18.6934 11.4787 18.6558 11.2896 18.6558C11.1004 18.6558 10.9318 18.6934 10.7837 18.7686C10.6356 18.8415 10.5091 18.9508 10.4043 19.0967C10.3018 19.2402 10.2231 19.4191 10.1685 19.6333C10.1138 19.8452 10.0864 20.0902 10.0864 20.3682V20.6484C10.0864 20.9264 10.1138 21.1725 10.1685 21.3867C10.2231 21.6009 10.3029 21.7821 10.4077 21.9302C10.5148 22.076 10.6424 22.1865 10.7905 22.2617C10.9386 22.3346 11.1073 22.3711 11.2964 22.3711C11.4878 22.3711 11.6576 22.3346 11.8057 22.2617C11.9538 22.1865 12.0791 22.076 12.1816 21.9302C12.2842 21.7821 12.3617 21.6009 12.4141 21.3867C12.4688 21.1725 12.4961 20.9264 12.4961 20.6484ZM15.6577 23H14.5947L14.6016 22.3198H15.6577C15.9653 22.3198 16.2228 22.2526 16.4302 22.1182C16.6398 21.9837 16.797 21.7912 16.9019 21.5405C17.009 21.2899 17.0625 20.9914 17.0625 20.645V20.375C17.0625 20.1061 17.0317 19.868 16.9702 19.6606C16.911 19.4533 16.8221 19.279 16.7036 19.1377C16.5874 18.9964 16.4438 18.8893 16.2729 18.8164C16.1043 18.7435 15.9095 18.707 15.6885 18.707H14.5742V18.0234H15.6885C16.0189 18.0234 16.3208 18.0793 16.5942 18.1909C16.8677 18.3003 17.1035 18.4587 17.3018 18.666C17.5023 18.8734 17.6561 19.1217 17.7632 19.4111C17.8703 19.7005 17.9238 20.0241 17.9238 20.3818V20.645C17.9238 21.0028 17.8703 21.3263 17.7632 21.6157C17.6561 21.9051 17.5023 22.1535 17.3018 22.3608C17.1012 22.5659 16.862 22.7243 16.584 22.8359C16.3083 22.9453 15.9995 23 15.6577 23ZM15.0698 18.0234V23H14.2119V18.0234H15.0698ZM21.5776 18.0234H22.4321V21.3491C22.4321 21.7274 22.3501 22.0441 22.186 22.2993C22.022 22.5545 21.7987 22.7471 21.5161 22.877C21.2358 23.0046 20.9225 23.0684 20.5762 23.0684C20.2184 23.0684 19.8994 23.0046 19.6191 22.877C19.3389 22.7471 19.1178 22.5545 18.9561 22.2993C18.7965 22.0441 18.7168 21.7274 18.7168 21.3491V18.0234H19.5713V21.3491C19.5713 21.5884 19.6123 21.7855 19.6943 21.9404C19.7764 22.0931 19.8926 22.2059 20.043 22.2788C20.1934 22.3517 20.3711 22.3882 20.5762 22.3882C20.7812 22.3882 20.9578 22.3517 21.106 22.2788C21.2563 22.2059 21.3726 22.0931 21.4546 21.9404C21.5366 21.7855 21.5776 21.5884 21.5776 21.3491V18.0234ZM26.3047 21.3799H27.1592C27.1318 21.7057 27.0407 21.9963 26.8857 22.2515C26.7308 22.5044 26.5132 22.7038 26.2329 22.8496C25.9526 22.9954 25.612 23.0684 25.2109 23.0684C24.9033 23.0684 24.6265 23.0137 24.3804 22.9043C24.1343 22.7926 23.9235 22.6354 23.748 22.4326C23.5726 22.2275 23.4382 21.9803 23.3447 21.6909C23.2536 21.4015 23.208 21.078 23.208 20.7202V20.3066C23.208 19.9489 23.2547 19.6253 23.3481 19.3359C23.4438 19.0465 23.5806 18.7993 23.7583 18.5942C23.936 18.3869 24.1491 18.2285 24.3975 18.1191C24.6481 18.0098 24.9295 17.9551 25.2417 17.9551C25.6382 17.9551 25.9731 18.028 26.2466 18.1738C26.52 18.3197 26.7319 18.5213 26.8823 18.7788C27.035 19.0363 27.1284 19.3314 27.1626 19.6641H26.3081C26.2853 19.4499 26.2352 19.2664 26.1577 19.1138C26.0825 18.9611 25.9709 18.8449 25.8228 18.7651C25.6746 18.6831 25.481 18.6421 25.2417 18.6421C25.0457 18.6421 24.8748 18.6785 24.729 18.7515C24.5832 18.8244 24.4613 18.9315 24.3633 19.0728C24.2653 19.214 24.1912 19.3883 24.1411 19.5957C24.0933 19.8008 24.0693 20.0355 24.0693 20.2998V20.7202C24.0693 20.9709 24.091 21.1987 24.1343 21.4038C24.1799 21.6066 24.2482 21.7809 24.3394 21.9268C24.4328 22.0726 24.5513 22.1854 24.6948 22.2651C24.8384 22.3449 25.0104 22.3848 25.2109 22.3848C25.4548 22.3848 25.6519 22.346 25.8022 22.2686C25.9549 22.1911 26.07 22.0783 26.1475 21.9302C26.2272 21.7798 26.2796 21.5964 26.3047 21.3799ZM29.8833 18.0234V23H29.0322V18.0234H29.8833ZM31.4453 18.0234V18.707H27.4839V18.0234H31.4453ZM33.0176 18.0234V23H32.1597V18.0234H33.0176ZM38.0522 20.375V20.6484C38.0522 21.0244 38.0033 21.3617 37.9053 21.6602C37.8073 21.9587 37.6672 22.2127 37.4849 22.4224C37.3049 22.632 37.0884 22.7926 36.8354 22.9043C36.5825 23.0137 36.3022 23.0684 35.9946 23.0684C35.6893 23.0684 35.4102 23.0137 35.1572 22.9043C34.9066 22.7926 34.689 22.632 34.5044 22.4224C34.3198 22.2127 34.1763 21.9587 34.0737 21.6602C33.9735 21.3617 33.9233 21.0244 33.9233 20.6484V20.375C33.9233 19.999 33.9735 19.6629 34.0737 19.3667C34.174 19.0682 34.3153 18.8141 34.4976 18.6045C34.6821 18.3926 34.8997 18.2319 35.1504 18.1226C35.4033 18.0109 35.6825 17.9551 35.9878 17.9551C36.2954 17.9551 36.5757 18.0109 36.8286 18.1226C37.0815 18.2319 37.2992 18.3926 37.4814 18.6045C37.6637 18.8141 37.8039 19.0682 37.9019 19.3667C38.0021 19.6629 38.0522 19.999 38.0522 20.375ZM37.1943 20.6484V20.3682C37.1943 20.0902 37.167 19.8452 37.1123 19.6333C37.0599 19.4191 36.9813 19.2402 36.8765 19.0967C36.7739 18.9508 36.6475 18.8415 36.4971 18.7686C36.3467 18.6934 36.1769 18.6558 35.9878 18.6558C35.7987 18.6558 35.63 18.6934 35.4819 18.7686C35.3338 18.8415 35.2074 18.9508 35.1025 19.0967C35 19.2402 34.9214 19.4191 34.8667 19.6333C34.812 19.8452 34.7847 20.0902 34.7847 20.3682V20.6484C34.7847 20.9264 34.812 21.1725 34.8667 21.3867C34.9214 21.6009 35.0011 21.7821 35.106 21.9302C35.2131 22.076 35.3407 22.1865 35.4888 22.2617C35.6369 22.3346 35.8055 22.3711 35.9946 22.3711C36.186 22.3711 36.3558 22.3346 36.5039 22.2617C36.652 22.1865 36.7773 22.076 36.8799 21.9302C36.9824 21.7821 37.0599 21.6009 37.1123 21.3867C37.167 21.1725 37.1943 20.9264 37.1943 20.6484ZM42.8579 18.0234V23H42L39.7681 19.4351V23H38.9102V18.0234H39.7681L42.0068 21.5952V18.0234H42.8579Z" fill="#213C57"/>
</svg>
