<svg width="130" height="27" viewBox="0 0 130 27" fill="none" xmlns="http://www.w3.org/2000/svg">
<path d="M0 10.978C0 16.9121 4.479 21.956 10.9176 21.956C17.3561 21.956 21.8352 16.9121 21.8352 10.978C21.8352 5.04396 17.3561 -2.98294e-07 10.9176 0C4.479 2.98294e-07 0 5.04396 0 10.978ZM5.45879 10.978C5.45879 7.41758 7.6983 5.04396 10.9176 5.04396C14.1369 5.04396 16.3764 7.41758 16.3764 10.978C16.3764 14.5385 14.1369 16.9121 10.9176 16.9121C7.6983 16.9121 5.45879 14.5385 5.45879 10.978Z" fill="#213C57"/>
<path d="M24.2037 21.3626H28.9626V13.2033C28.9626 11.1264 30.2224 9.79121 31.762 9.79121C33.3017 9.79121 34.2814 10.8297 34.2814 12.6099V21.3626H39.0404V11.8681C39.0404 7.71428 36.9409 5.48901 33.5816 5.48901C30.5023 5.48901 29.2426 8.01099 29.2426 8.01099H28.9626L28.9626 5.93406H24.2037V21.3626Z" fill="#213C57"/>
<path d="M41.6998 21.3626H49.678V17.3571H46.4587V0.593404L41.6998 0.593405V21.3626Z" fill="#213C57"/>
<path d="M49.6835 5.93406L53.4627 21.3626L56.6819 21.3626L55.1423 27H60.0412L65.6399 5.93406L60.741 5.93406L57.9417 17.0604H57.1018L54.5824 5.93406L49.6835 5.93406Z" fill="#213C57"/>
<path d="M66.9331 21.3626H72L72 16.2593H66.9331V21.3626Z" fill="#213C57"/>
<path d="M84.4453 4.37988H85.2998C85.2725 4.70573 85.1813 4.99626 85.0264 5.25146C84.8714 5.50439 84.6538 5.70378 84.3735 5.84961C84.0933 5.99544 83.7526 6.06836 83.3516 6.06836C83.0439 6.06836 82.7671 6.01367 82.521 5.9043C82.2749 5.79264 82.0641 5.63542 81.8887 5.43262C81.7132 5.22754 81.5788 4.98031 81.4854 4.69092C81.3942 4.40153 81.3486 4.07796 81.3486 3.72021V3.30664C81.3486 2.94889 81.3953 2.62533 81.4888 2.33594C81.5845 2.04655 81.7212 1.79932 81.8989 1.59424C82.0767 1.38688 82.2897 1.22852 82.5381 1.11914C82.7887 1.00977 83.0701 0.955078 83.3823 0.955078C83.7788 0.955078 84.1138 1.02799 84.3872 1.17383C84.6606 1.31966 84.8726 1.52132 85.0229 1.77881C85.1756 2.0363 85.269 2.33138 85.3032 2.66406H84.4487C84.4259 2.44987 84.3758 2.26644 84.2983 2.11377C84.2231 1.9611 84.1115 1.84489 83.9634 1.76514C83.8153 1.68311 83.6216 1.64209 83.3823 1.64209C83.1864 1.64209 83.0155 1.67855 82.8696 1.75146C82.7238 1.82438 82.6019 1.93148 82.5039 2.07275C82.4059 2.21403 82.3319 2.38835 82.2817 2.5957C82.2339 2.80078 82.21 3.03548 82.21 3.2998V3.72021C82.21 3.97087 82.2316 4.19873 82.2749 4.40381C82.3205 4.60661 82.3888 4.78092 82.48 4.92676C82.5734 5.07259 82.6919 5.18538 82.8354 5.26514C82.979 5.34489 83.151 5.38477 83.3516 5.38477C83.5954 5.38477 83.7925 5.34603 83.9429 5.26855C84.0955 5.19108 84.2106 5.07829 84.2881 4.93018C84.3678 4.77979 84.4202 4.59635 84.4453 4.37988ZM86.0791 1.02344H87.8394C88.2176 1.02344 88.54 1.0804 88.8066 1.19434C89.0732 1.30827 89.2772 1.47689 89.4185 1.7002C89.562 1.92122 89.6338 2.19466 89.6338 2.52051C89.6338 2.76888 89.5882 2.98763 89.4971 3.17676C89.4059 3.36589 89.2772 3.52539 89.1108 3.65527C88.9445 3.78288 88.7463 3.882 88.5161 3.95264L88.2563 4.0791H86.6738L86.667 3.39893H87.853C88.0581 3.39893 88.229 3.36247 88.3657 3.28955C88.5024 3.21663 88.605 3.11751 88.6733 2.99219C88.744 2.86458 88.7793 2.72103 88.7793 2.56152C88.7793 2.38835 88.7451 2.23796 88.6768 2.11035C88.6107 1.98047 88.5081 1.88135 88.3691 1.81299C88.2301 1.74235 88.0535 1.70703 87.8394 1.70703H86.937V6H86.0791V1.02344ZM88.9194 6L87.7505 3.76465L88.6494 3.76123L89.8354 5.95557V6H88.9194ZM93.7456 5.31982V6H91.1035V5.31982H93.7456ZM91.3462 1.02344V6H90.4883V1.02344H91.3462ZM93.4004 3.10156V3.77148H91.1035V3.10156H93.4004ZM93.7285 1.02344V1.70703H91.1035V1.02344H93.7285ZM96.3843 1.68652L94.8975 6H93.9985L95.8716 1.02344H96.4458L96.3843 1.68652ZM97.6284 6L96.1382 1.68652L96.0732 1.02344H96.6509L98.5308 6H97.6284ZM97.5566 4.1543V4.83447H94.8496V4.1543H97.5566ZM100.705 1.02344V6H99.8535V1.02344H100.705ZM102.267 1.02344V1.70703H98.3052V1.02344H102.267ZM103.839 1.02344V6H102.981V1.02344H103.839ZM106.611 5.09082L107.92 1.02344H108.867L107.083 6H106.443L106.611 5.09082ZM105.401 1.02344L106.7 5.09082L106.877 6H106.235L104.458 1.02344H105.401ZM112.681 5.31982V6H110.039V5.31982H112.681ZM110.282 1.02344V6H109.424V1.02344H110.282ZM112.336 3.10156V3.77148H110.039V3.10156H112.336ZM112.664 1.02344V1.70703H110.039V1.02344H112.664ZM82.9517 15H81.8887L81.8955 14.3198H82.9517C83.2593 14.3198 83.5168 14.2526 83.7241 14.1182C83.9338 13.9837 84.091 13.7912 84.1958 13.5405C84.3029 13.2899 84.3564 12.9914 84.3564 12.645V12.375C84.3564 12.1061 84.3257 11.868 84.2642 11.6606C84.2049 11.4533 84.116 11.279 83.9976 11.1377C83.8813 10.9964 83.7378 10.8893 83.5669 10.8164C83.3983 10.7435 83.2035 10.707 82.9824 10.707H81.8682V10.0234H82.9824C83.3128 10.0234 83.6147 10.0793 83.8882 10.1909C84.1616 10.3003 84.3975 10.4587 84.5957 10.666C84.7962 10.8734 84.95 11.1217 85.0571 11.4111C85.1642 11.7005 85.2178 12.0241 85.2178 12.3818V12.645C85.2178 13.0028 85.1642 13.3263 85.0571 13.6157C84.95 13.9051 84.7962 14.1535 84.5957 14.3608C84.3952 14.5659 84.1559 14.7243 83.8779 14.8359C83.6022 14.9453 83.2935 15 82.9517 15ZM82.3638 10.0234V15H81.5059V10.0234H82.3638ZM86.9951 10.0234V15H86.1372V10.0234H86.9951ZM91.8828 12.457V14.3574C91.8122 14.4508 91.7017 14.5534 91.5513 14.665C91.4032 14.7744 91.2061 14.869 90.96 14.9487C90.7139 15.0285 90.4074 15.0684 90.0405 15.0684C89.7284 15.0684 89.4424 15.016 89.1826 14.9111C88.9229 14.804 88.6984 14.6479 88.5093 14.4429C88.3224 14.2378 88.1777 13.9883 88.0752 13.6943C87.9727 13.3981 87.9214 13.0609 87.9214 12.6826V12.3374C87.9214 11.9614 87.9681 11.6265 88.0615 11.3325C88.1572 11.0363 88.2939 10.7856 88.4717 10.5806C88.6494 10.3755 88.8636 10.2205 89.1143 10.1157C89.3672 10.0086 89.6532 9.95508 89.9722 9.95508C90.38 9.95508 90.7173 10.0234 90.9839 10.1602C91.2528 10.2946 91.4601 10.4814 91.606 10.7207C91.7518 10.96 91.8441 11.2334 91.8828 11.541H91.042C91.0146 11.3678 90.9611 11.2129 90.8813 11.0762C90.8039 10.9395 90.6922 10.8324 90.5464 10.7549C90.4028 10.6751 90.216 10.6353 89.9858 10.6353C89.7876 10.6353 89.6133 10.6729 89.4629 10.748C89.3125 10.8232 89.1872 10.9338 89.0869 11.0796C88.9889 11.2254 88.9149 11.4032 88.8647 11.6128C88.8146 11.8224 88.7896 12.0617 88.7896 12.3306V12.6826C88.7896 12.9561 88.818 13.1987 88.875 13.4106C88.9342 13.6226 89.0186 13.8014 89.1279 13.9473C89.2396 14.0931 89.3752 14.2036 89.5347 14.2788C89.6942 14.3517 89.8742 14.3882 90.0747 14.3882C90.2707 14.3882 90.4313 14.3722 90.5566 14.3403C90.682 14.3062 90.7811 14.2663 90.854 14.2207C90.9292 14.1729 90.9873 14.1273 91.0283 14.084V13.0962H89.9927V12.457H91.8828ZM93.749 10.0234V15H92.8911V10.0234H93.749ZM96.7603 10.0234V15H95.9092V10.0234H96.7603ZM98.3223 10.0234V10.707H94.3608V10.0234H98.3223ZM100.588 10.6865L99.1016 15H98.2026L100.076 10.0234H100.65L100.588 10.6865ZM101.833 15L100.342 10.6865L100.277 10.0234H100.855L102.735 15H101.833ZM101.761 13.1543V13.8345H99.0537V13.1543H101.761ZM106.409 14.3198V15H103.911V14.3198H106.409ZM104.15 10.0234V15H103.292V10.0234H104.15ZM83.396 21.144H82.1006V20.4639H83.396C83.6216 20.4639 83.8039 20.4274 83.9429 20.3545C84.0819 20.2816 84.1833 20.1813 84.2471 20.0537C84.3132 19.9238 84.3462 19.7757 84.3462 19.6094C84.3462 19.4521 84.3132 19.3052 84.2471 19.1685C84.1833 19.0295 84.0819 18.9178 83.9429 18.8335C83.8039 18.7492 83.6216 18.707 83.396 18.707H82.3638V23H81.5059V18.0234H83.396C83.7811 18.0234 84.1081 18.0918 84.377 18.2285C84.6481 18.363 84.8543 18.5498 84.9956 18.7891C85.1369 19.026 85.2075 19.2972 85.2075 19.6025C85.2075 19.9238 85.1369 20.1995 84.9956 20.4297C84.8543 20.6598 84.6481 20.8364 84.377 20.9595C84.1081 21.0825 83.7811 21.144 83.396 21.144ZM85.9766 18.0234H87.7368C88.1151 18.0234 88.4375 18.0804 88.7041 18.1943C88.9707 18.3083 89.1746 18.4769 89.3159 18.7002C89.4595 18.9212 89.5312 19.1947 89.5312 19.5205C89.5312 19.7689 89.4857 19.9876 89.3945 20.1768C89.3034 20.3659 89.1746 20.5254 89.0083 20.6553C88.842 20.7829 88.6437 20.882 88.4136 20.9526L88.1538 21.0791H86.5713L86.5645 20.3989H87.7505C87.9556 20.3989 88.1265 20.3625 88.2632 20.2896C88.3999 20.2166 88.5024 20.1175 88.5708 19.9922C88.6414 19.8646 88.6768 19.721 88.6768 19.5615C88.6768 19.3883 88.6426 19.238 88.5742 19.1104C88.5081 18.9805 88.4056 18.8813 88.2666 18.813C88.1276 18.7424 87.951 18.707 87.7368 18.707H86.8345V23H85.9766V18.0234ZM88.8169 23L87.6479 20.7646L88.5469 20.7612L89.7329 22.9556V23H88.8169ZM94.354 20.375V20.6484C94.354 21.0244 94.305 21.3617 94.207 21.6602C94.109 21.9587 93.9689 22.2127 93.7866 22.4224C93.6066 22.632 93.3901 22.7926 93.1372 22.9043C92.8843 23.0137 92.604 23.0684 92.2964 23.0684C91.991 23.0684 91.7119 23.0137 91.459 22.9043C91.2083 22.7926 90.9907 22.632 90.8062 22.4224C90.6216 22.2127 90.478 21.9587 90.3755 21.6602C90.2752 21.3617 90.2251 21.0244 90.2251 20.6484V20.375C90.2251 19.999 90.2752 19.6629 90.3755 19.3667C90.4757 19.0682 90.617 18.8141 90.7993 18.6045C90.9839 18.3926 91.2015 18.2319 91.4521 18.1226C91.7051 18.0109 91.9842 17.9551 92.2896 17.9551C92.5972 17.9551 92.8774 18.0109 93.1304 18.1226C93.3833 18.2319 93.6009 18.3926 93.7832 18.6045C93.9655 18.8141 94.1056 19.0682 94.2036 19.3667C94.3039 19.6629 94.354 19.999 94.354 20.375ZM93.4961 20.6484V20.3682C93.4961 20.0902 93.4688 19.8452 93.4141 19.6333C93.3617 19.4191 93.283 19.2402 93.1782 19.0967C93.0757 18.9508 92.9492 18.8415 92.7988 18.7686C92.6484 18.6934 92.4787 18.6558 92.2896 18.6558C92.1004 18.6558 91.9318 18.6934 91.7837 18.7686C91.6356 18.8415 91.5091 18.9508 91.4043 19.0967C91.3018 19.2402 91.2231 19.4191 91.1685 19.6333C91.1138 19.8452 91.0864 20.0902 91.0864 20.3682V20.6484C91.0864 20.9264 91.1138 21.1725 91.1685 21.3867C91.2231 21.6009 91.3029 21.7821 91.4077 21.9302C91.5148 22.076 91.6424 22.1865 91.7905 22.2617C91.9386 22.3346 92.1073 22.3711 92.2964 22.3711C92.4878 22.3711 92.6576 22.3346 92.8057 22.2617C92.9538 22.1865 93.0791 22.076 93.1816 21.9302C93.2842 21.7821 93.3617 21.6009 93.4141 21.3867C93.4688 21.1725 93.4961 20.9264 93.4961 20.6484ZM96.6577 23H95.5947L95.6016 22.3198H96.6577C96.9653 22.3198 97.2228 22.2526 97.4302 22.1182C97.6398 21.9837 97.797 21.7912 97.9019 21.5405C98.009 21.2899 98.0625 20.9914 98.0625 20.645V20.375C98.0625 20.1061 98.0317 19.868 97.9702 19.6606C97.911 19.4533 97.8221 19.279 97.7036 19.1377C97.5874 18.9964 97.4438 18.8893 97.2729 18.8164C97.1043 18.7435 96.9095 18.707 96.6885 18.707H95.5742V18.0234H96.6885C97.0189 18.0234 97.3208 18.0793 97.5942 18.1909C97.8677 18.3003 98.1035 18.4587 98.3018 18.666C98.5023 18.8734 98.6561 19.1217 98.7632 19.4111C98.8703 19.7005 98.9238 20.0241 98.9238 20.3818V20.645C98.9238 21.0028 98.8703 21.3263 98.7632 21.6157C98.6561 21.9051 98.5023 22.1535 98.3018 22.3608C98.1012 22.5659 97.862 22.7243 97.584 22.8359C97.3083 22.9453 96.9995 23 96.6577 23ZM96.0698 18.0234V23H95.2119V18.0234H96.0698ZM102.578 18.0234H103.432V21.3491C103.432 21.7274 103.35 22.0441 103.186 22.2993C103.022 22.5545 102.799 22.7471 102.516 22.877C102.236 23.0046 101.923 23.0684 101.576 23.0684C101.218 23.0684 100.899 23.0046 100.619 22.877C100.339 22.7471 100.118 22.5545 99.9561 22.2993C99.7965 22.0441 99.7168 21.7274 99.7168 21.3491V18.0234H100.571V21.3491C100.571 21.5884 100.612 21.7855 100.694 21.9404C100.776 22.0931 100.893 22.2059 101.043 22.2788C101.193 22.3517 101.371 22.3882 101.576 22.3882C101.781 22.3882 101.958 22.3517 102.106 22.2788C102.256 22.2059 102.373 22.0931 102.455 21.9404C102.537 21.7855 102.578 21.5884 102.578 21.3491V18.0234ZM107.305 21.3799H108.159C108.132 21.7057 108.041 21.9963 107.886 22.2515C107.731 22.5044 107.513 22.7038 107.233 22.8496C106.953 22.9954 106.612 23.0684 106.211 23.0684C105.903 23.0684 105.626 23.0137 105.38 22.9043C105.134 22.7926 104.924 22.6354 104.748 22.4326C104.573 22.2275 104.438 21.9803 104.345 21.6909C104.254 21.4015 104.208 21.078 104.208 20.7202V20.3066C104.208 19.9489 104.255 19.6253 104.348 19.3359C104.444 19.0465 104.581 18.7993 104.758 18.5942C104.936 18.3869 105.149 18.2285 105.397 18.1191C105.648 18.0098 105.93 17.9551 106.242 17.9551C106.638 17.9551 106.973 18.028 107.247 18.1738C107.52 18.3197 107.732 18.5213 107.882 18.7788C108.035 19.0363 108.128 19.3314 108.163 19.6641H107.308C107.285 19.4499 107.235 19.2664 107.158 19.1138C107.083 18.9611 106.971 18.8449 106.823 18.7651C106.675 18.6831 106.481 18.6421 106.242 18.6421C106.046 18.6421 105.875 18.6785 105.729 18.7515C105.583 18.8244 105.461 18.9315 105.363 19.0728C105.265 19.214 105.191 19.3883 105.141 19.5957C105.093 19.8008 105.069 20.0355 105.069 20.2998V20.7202C105.069 20.9709 105.091 21.1987 105.134 21.4038C105.18 21.6066 105.248 21.7809 105.339 21.9268C105.433 22.0726 105.551 22.1854 105.695 22.2651C105.838 22.3449 106.01 22.3848 106.211 22.3848C106.455 22.3848 106.652 22.346 106.802 22.2686C106.955 22.1911 107.07 22.0783 107.147 21.9302C107.227 21.7798 107.28 21.5964 107.305 21.3799ZM110.883 18.0234V23H110.032V18.0234H110.883ZM112.445 18.0234V18.707H108.484V18.0234H112.445ZM114.018 18.0234V23H113.16V18.0234H114.018ZM119.052 20.375V20.6484C119.052 21.0244 119.003 21.3617 118.905 21.6602C118.807 21.9587 118.667 22.2127 118.485 22.4224C118.305 22.632 118.088 22.7926 117.835 22.9043C117.583 23.0137 117.302 23.0684 116.995 23.0684C116.689 23.0684 116.41 23.0137 116.157 22.9043C115.907 22.7926 115.689 22.632 115.504 22.4224C115.32 22.2127 115.176 21.9587 115.074 21.6602C114.973 21.3617 114.923 21.0244 114.923 20.6484V20.375C114.923 19.999 114.973 19.6629 115.074 19.3667C115.174 19.0682 115.315 18.8141 115.498 18.6045C115.682 18.3926 115.9 18.2319 116.15 18.1226C116.403 18.0109 116.682 17.9551 116.988 17.9551C117.295 17.9551 117.576 18.0109 117.829 18.1226C118.082 18.2319 118.299 18.3926 118.481 18.6045C118.664 18.8141 118.804 19.0682 118.902 19.3667C119.002 19.6629 119.052 19.999 119.052 20.375ZM118.194 20.6484V20.3682C118.194 20.0902 118.167 19.8452 118.112 19.6333C118.06 19.4191 117.981 19.2402 117.876 19.0967C117.774 18.9508 117.647 18.8415 117.497 18.7686C117.347 18.6934 117.177 18.6558 116.988 18.6558C116.799 18.6558 116.63 18.6934 116.482 18.7686C116.334 18.8415 116.207 18.9508 116.103 19.0967C116 19.2402 115.921 19.4191 115.867 19.6333C115.812 19.8452 115.785 20.0902 115.785 20.3682V20.6484C115.785 20.9264 115.812 21.1725 115.867 21.3867C115.921 21.6009 116.001 21.7821 116.106 21.9302C116.213 22.076 116.341 22.1865 116.489 22.2617C116.637 22.3346 116.806 22.3711 116.995 22.3711C117.186 22.3711 117.356 22.3346 117.504 22.2617C117.652 22.1865 117.777 22.076 117.88 21.9302C117.982 21.7821 118.06 21.6009 118.112 21.3867C118.167 21.1725 118.194 20.9264 118.194 20.6484ZM123.858 18.0234V23H123L120.768 19.4351V23H119.91V18.0234H120.768L123.007 21.5952V18.0234H123.858Z" fill="#213C57"/>
</svg>
